<svg xmlns="http://www.w3.org/2000/svg" width="1216" height="1213"><path d="M574 1.059C455.289 5.354 344.387 44.988 247.5 117.745c-54.639 41.031-102.755 89.931-148 150.408-34.719 46.408-71.145 141.58-86.893 227.03-7.562 41.03-10.626 73.42-11.288 119.317-.509 35.339-.47 36.312 2.139 53 6.632 42.41 12.189 69.843 19.007 93.836C35.779 808.184 42.216 849.048 42.261 887c.044 36.885-4.754 57.65-18.023 78-7.847 12.036-10.217 17.524-10.228 23.693-.012 6.464 2.091 8.307 9.483 8.307 15.116 0 54.13-16.825 80.398-34.671 5.165-3.51 9.472-6.257 9.571-6.105 32.397 49.694 81.684 101.407 134.038 140.633 128.195 96.05 280.416 132.804 449.5 108.531 27.924-4.008 69.756-12.744 95.811-20.009 2.09-.583.554-2.427-16.05-19.262-18.601-18.86-28.057-29.565-40.031-45.319-45.981-60.498-61.456-116.745-44.151-160.479 8.661-21.887 26.501-42.542 51.203-59.281l6.281-4.257-4.395-8.14c-11.225-20.793-26.021-55.742-35.732-84.404-29.455-86.936-33.858-163.67-12.988-226.332 10.3-30.927 23.742-53.913 46.01-78.678 8.326-9.261 13.825-14.153 41.632-37.041 23.484-19.33 47.622-44.356 61.739-64.013 16.213-22.575 22.159-36.311 26.695-61.673 3.853-21.539 15.846-44.092 32.906-61.877 11.077-11.549 22.099-19.749 34.57-25.719 14.247-6.82 22.447-8.884 39-9.818 16.08-.908 22.18-2.838 33.672-10.654 13.894-9.45 19.237-22.511 15.861-38.773-3.572-17.208-23.923-44.778-48.339-65.488-41.289-35.022-115.93-72.378-188.119-94.148C738.329 13.663 679.462 3.311 630.5 1.52 599.349.381 593.974.337 574 1.059M383 267.527c-44.04 6.906-81.997 39.563-95.276 81.973-4.485 14.323-5.189 19.28-5.186 36.5.002 12.286.474 18.671 1.847 25 10.492 48.366 48.033 84.538 97.115 93.574 13.616 2.506 37.578 1.563 51-2.008 11.821-3.146 29.156-11.288 39.13-18.38 26.118-18.57 43.369-46.225 49.001-78.55 2.325-13.346 1.436-35.837-1.926-48.71-15.884-60.816-73.968-99.081-135.705-89.399m-5.5 17.619c-10.442 1.928-23.894 7.213-30.852 12.123l-2.851 2.012 5.656 3.035c7.296 3.915 15.572 12.899 19.748 21.438 3.199 6.541 3.299 7.128 3.299 19.298 0 12.539-.004 12.56-3.837 20.315-5.023 10.165-12.13 17.272-22.295 22.296-7.661 3.787-7.912 3.837-19.444 3.837h-11.683l.933 2.455c2.378 6.26 8.436 16.396 13.39 22.401 26.124 31.671 71.942 38.068 106.173 14.823 9.853-6.692 20.589-18.985 25.768-29.507 6.351-12.903 8.676-22.595 8.676-36.172 0-38.466-26.897-70.771-65.019-78.091-8.137-1.562-20.008-1.675-27.662-.263m611.809 5.857C966.042 302.63 943 338.558 943 363.21c0 13.114 4.725 19.123 15.038 19.123 16.529 0 38.775-20.6 51.46-47.655 9.18-19.576 9.9-36.609 1.848-43.679-3.022-2.654-4.141-2.999-9.721-2.999-5.007 0-7.543.619-12.316 3.003m105.377 54.971c-6.895 2.694-14.752 9.119-19.811 16.2-22.234 31.121-48.782 53.038-85.241 70.368-19.393 9.218-40.643 15.894-68.579 21.544-30.448 6.159-49.056 12.249-69.905 22.878-25.71 13.108-44.521 30.086-54.009 48.746-2.74 5.389-2.709 9.739.109 15.328 3.17 6.287 9.561 9.538 22.576 11.484 55.631 8.318 119.189 53.32 163.91 116.055 36.989 51.888 62.412 111.175 81.699 190.523 3.015 12.403 6.682 25.892 8.148 29.975 7.325 20.395 17.239 33.933 27.732 37.869 17.274 6.479 39.473-15.221 59.275-57.944 30.004-64.733 48.328-136.372 53.519-209.242 1.492-20.936.613-73.65-1.529-91.758-8.94-75.575-29.625-136.486-68.301-201.121-6.761-11.3-8.126-12.97-13.034-15.944-3.014-1.827-7.791-4.12-10.613-5.096-7.014-2.424-19.562-2.359-25.946.135m.658 38.026c-9.921 2.062-16.634 7.346-26.677 21-8.092 11.002-21.135 24.725-31.167 32.793-3.85 3.096-7.158 5.73-7.352 5.854-.194.123 4.354 7.34 10.106 16.038 58.41 88.324 92.22 185.608 101.938 293.315.807 8.953 1.289 28.656 1.258 51.5-.049 36.772-1.111 54.507-4.884 81.604-.72 5.168-1.196 9.529-1.059 9.691.62.733 9.955-16.532 15.305-28.306 43.383-95.475 58.903-205.803 42.62-302.989-9.472-56.535-29.794-110.842-60.173-160.798-5.243-8.621-7.444-11.312-10.918-13.348-9.733-5.704-20.632-8.092-28.997-6.354M774 583.691c-5.444.911-12.059 3.569-16.015 6.435-5.802 4.203-8.3 10.185-8.508 20.374-.089 4.4-1.105 11.6-2.256 16-10.123 38.683-12.682 88.381-6.642 129 6.582 44.268 22.311 82.836 47.815 117.237 5.28 7.123 6.512 8.238 9.106 8.241 1.65.003 12.675-1.113 24.5-2.478 101.421-11.713 164.36-25.463 180.196-39.367l3.655-3.21-1.991-7.211c-7.011-25.393-21.547-59.389-37.29-87.212-35.651-63.007-87.546-116.124-146.999-150.459-7.78-4.493-10.104-5.321-18.485-6.584-9.007-1.358-21.449-1.71-27.086-.766" fill="undefined" fill-rule="evenodd"/></svg>