<?xml version="1.0" encoding="utf-8"?>
<!-- Generator: Adobe Illustrator 24.0.1, SVG Export Plug-In . SVG Version: 6.00 Build 0)  -->
<svg version="1.1" id="图层_1" xmlns="http://www.w3.org/2000/svg" xmlns:xlink="http://www.w3.org/1999/xlink" x="0px" y="0px"
	 viewBox="0 0 200 200" style="enable-background:new 0 0 200 200;" xml:space="preserve">
<path fill="rgba(123,123,123,0.3)" d="M40,33c-2.3-2.3-5.1-3.4-8.4-3.4c-3.3,0-6.1,1.1-8.4,3.4c-2.3,2.3-3.5,5.1-3.5,8.3c0,4.4,2,7.8,6,10.1v116.2
	c0,0.8,0.3,1.5,0.9,2.1c0.6,0.6,1.3,0.9,2.1,0.9h6c0.8,0,1.5-0.3,2.1-0.9c0.6-0.6,0.9-1.3,0.9-2.1V51.4c4-2.3,6-5.7,6-10.1
	C43.5,38,42.3,35.2,40,33"/>
<path fill="rgba(123,123,123,0.5)" d="M178.6,43c-1.2-1.2-2.6-1.7-4.2-1.7c-0.8,0-2.5,0.6-5.1,1.9c-2.6,1.3-5.3,2.7-8.2,4.3s-6.3,3-10.2,4.3
	c-3.9,1.3-7.6,1.9-10.9,1.9c-3.1,0-5.8-0.6-8.2-1.7c-7.8-3.6-14.6-6.3-20.4-8.1c-5.8-1.8-12-2.7-18.6-2.7c-11.5,0-24.5,3.7-39.2,11
	c-3.6,1.8-6,3.1-7.3,3.9c-1.9,1.4-2.9,3.1-2.9,5.1v68.1c0,1.6,0.6,3,1.8,4.1c1.2,1.2,2.6,1.7,4.2,1.7c1,0,2-0.3,3.1-0.8
	c16.9-8.9,31.2-13.4,43.2-13.4c4.5,0,8.9,0.7,13.2,2c4.3,1.3,7.9,2.8,10.7,4.4c2.9,1.6,6.2,3.1,10.1,4.4c3.9,1.3,7.7,2,11.5,2
	c9.6,0,21-3.5,34.3-10.6c1.7-0.9,2.9-1.7,3.7-2.5c0.8-0.8,1.2-2,1.2-3.5v-70C180.4,45.5,179.8,44.2,178.6,43"/>
</svg>
