<?xml version="1.0" encoding="utf-8"?>
<!-- Generator: Adobe Illustrator 22.1.0, SVG Export Plug-In . SVG Version: 6.00 Build 0)  -->
<svg version="1.1" id="图层_1" xmlns="http://www.w3.org/2000/svg" xmlns:xlink="http://www.w3.org/1999/xlink" x="0px" y="0px"
	 viewBox="0 0 1240 1240" style="enable-background:new 0 0 1240 1240;" xml:space="preserve">
<style type="text/css">
	.st0{fill:#FF9903;}
	.st1{opacity:0.4;fill:#FFFFFF;enable-background:new    ;}
	.st2{fill:#FF440D;}
	.st3{fill:#00B176;}
	.st4{opacity:0.5;fill:#FFFFFF;enable-background:new    ;}
	.st5{fill:#FFFFFF;}
	.st6{opacity:0.2;fill:#FFFFFF;enable-background:new    ;}
</style>
<g>
	<path id="mouth-1" class="st0" d="M1080.2,885.3c0,0,25.6,117.1,83.8,15.3c0,0,152.8-272.5-15.3-532.2c0,0-35.8-30.7-63.9,10.2
		c0,0-40.9,69-150.3,88.9c-109.4,19.9-127.3,76.2-127.3,76.2s-5.1,20.4,25.6,23C863.9,569.4,1021.9,618,1080.2,885.3z"/>
	<path id="mouth-1-light" class="st1" d="M1141,407.3c0,0-33.2-28.6-59.3,9.7c0,0-11.8,19.9-40.4,40.9
		c72.1,101.7,114.5,226,114.5,359.4c0,32.2-2.6,63.9-7.2,94.6c2-3.1,4.1-6.6,6.6-10.7C1155.3,901.7,1296.9,648.6,1141,407.3z"/>
	<path id="mouth-2" class="st2" d="M1017.8,849.5c0,0-36.8-163.1-194.8-249.5c0,0-69-17.9-61.3,30.7c0,0-49.1,150.3,45.5,264.8
		C807.2,895.5,1000.9,877.7,1017.8,849.5z"/>
	
		<ellipse id="nostril" transform="matrix(0.5545 -0.8322 0.8322 0.5545 151.4206 980.9188)" class="st0" cx="991.9" cy="349" rx="54.7" ry="26.1"/>
	<path id="head" class="st3" d="M33.8,773.4c10.2,33.2,40.9,158,0,209.1c0,0-28.1,40.9,17.9,25.6c46-15.3,73.6-38.3,73.6-38.3
		s213.2,358.9,682.5,229c0,0-213.7-183.5-45.5-287.8c0,0-163.1-282.7,23-425.3c0,0,90.5-68,98.7-128.3s64.4-108.9,115.5-103.8
		c0,0,96.6-17.9,0-109.4S431-159.1,102.3,294.4c0,0-99.2,155.4-88.9,374.2C13.3,668.6,23.5,740.1,33.8,773.4z"/>
	<path id="head-light" class="st4" d="M485.1,86.3c0,0,187.1-69.5,397.2,62.9c0,0,44.5,50.6-4.6,51.1
		c-49.6,0.5-193.7-99.2-305.2-61.3S485.1,86.3,485.1,86.3z"/>
	<circle id="eye" class="st5" cx="414.1" cy="400.2" r="120.1"/>
	<path id="pupil" d="M338.4,404.8c26.1,0,47.5-21.5,47.5-47.5c0-19.9-12.3-36.8-29.6-44c13.3-9.2,29.1-14.8,46.5-14.8
		c44,0,79.2,35.8,79.2,79.2s-35.8,79.2-79.2,79.2c-34.8,0-64.4-22.5-75.1-53.7C331.3,404.3,334.9,404.8,338.4,404.8z"/>
	<path id="light" class="st6" d="M184,759.1c-0.5-32.2,22-71.6,46-34.3c24,37.3,47.5,11.8,47.5,11.8s27.1-124.2,47.5-8.2
		c20.4,116,26.6,8.7,26.6,8.7s12.3-54.7,56.7-15.3s61.3-3.6,61.3-3.6s35.8-44.5,52.7,34.3c16.9,78.2-66.5,316.9,121.2,414.1
		C644.1,1166,188.1,1115.4,184,759.1z"/>
</g>
</svg>
